<?xml version="1.0" encoding="UTF-8"?>
<svg version="1.1" xmlns="http://www.w3.org/2000/svg" width="216" height="104">
<path d="M0 0 C71.28 0 142.56 0 216 0 C216 34.32 216 68.64 216 104 C144.72 104 73.44 104 0 104 C0 69.68 0 35.36 0 0 Z " fill="#F8F8F8" transform="translate(0,0)"/>
<path d="M0 0 C2.35249001 1.10677229 3.96866157 2.33326077 6 4 C6.9590625 3.01 6.9590625 3.01 7.9375 2 C12.015024 -0.66287282 15.24958573 -0.98966964 20 0 C23.22652183 2.28545296 24.69699086 3.72891552 25.61889648 7.59619141 C26.09644968 11.86143588 26.12387901 16.04793985 26.09765625 20.3359375 C26.0962413 21.21528961 26.09482635 22.09464172 26.09336853 23.00064087 C26.08779877 25.79212942 26.0752519 28.58353594 26.0625 31.375 C26.05748109 33.27473842 26.05291887 35.1744781 26.04882812 37.07421875 C26.03783925 41.71617714 26.02059557 46.35807469 26 51 C15.02368989 46.76761969 15.02368989 46.76761969 11 42 C9.6148446 36.50224151 9.73233195 31.19850298 9.875 25.5625 C9.87694411 24.05273338 9.87438224 22.54295385 9.8671875 21.03320312 C9.85940023 17.35387408 9.91293989 13.67844831 10 10 C9.01 9.67 8.02 9.34 7 9 C6.67 22.86 6.34 36.72 6 51 C-5.17779599 46.52888161 -5.17779599 46.52888161 -9 42 C-10.3851554 36.50224151 -10.26766805 31.19850298 -10.125 25.5625 C-10.12305589 24.05273338 -10.12561776 22.54295385 -10.1328125 21.03320312 C-10.14059977 17.35387408 -10.08706011 13.67844831 -10 10 C-11.32 9.67 -12.64 9.34 -14 9 C-14 22.86 -14 36.72 -14 51 C-15.65 50.34 -17.3 49.68 -19 49 C-19.87575684 48.67314209 -20.75151367 48.34628418 -21.65380859 48.00952148 C-24.95769155 46.33725789 -26.76512647 44.98764561 -29 42 C-30.72072087 35.24180351 -29.93348445 27.95800043 -29.625 21.0625 C-29.57480368 19.11925455 -29.52918249 17.17588519 -29.48828125 15.23242188 C-29.37842622 10.4852112 -29.20610778 5.74396683 -29 1 C-24.05 1 -19.1 1 -14 1 C-13.67 1.66 -13.34 2.32 -13 3 C-12.525625 2.505 -12.05125 2.01 -11.5625 1.5 C-7.7695349 -0.72027225 -4.29447967 -0.70462102 0 0 Z " fill="#1C1A15" transform="translate(113,27)"/>
<path d="M0 0 C4.25128048 3.25864659 5.88593365 7.14396477 6.65625 12.26953125 C6.78188459 16.27476212 6.70030074 20.26091354 6.65625 24.26953125 C-0.27375 24.26953125 -7.20375 24.26953125 -14.34375 24.26953125 C-14.01375 28.55953125 -13.68375 32.84953125 -13.34375 37.26953125 C-12.02375 37.26953125 -10.70375 37.26953125 -9.34375 37.26953125 C-9.01375 33.96953125 -8.68375 30.66953125 -8.34375 27.26953125 C-6.57196947 28.22611225 -4.80135924 29.18486113 -3.03125 30.14453125 C-2.04511719 30.67820313 -1.05898437 31.211875 -0.04296875 31.76171875 C2.65625 33.26953125 2.65625 33.26953125 5.65625 35.26953125 C5.24068583 40.11777993 3.28176755 42.14989987 -0.34375 45.26953125 C-5.65704978 48.68862775 -12.29721875 47.80730712 -18.34375 47.26953125 C-22.84969206 46.07700387 -24.95884366 43.8667997 -27.49609375 39.9296875 C-30.22214345 34.22493615 -29.88982727 28.40994549 -29.78125 22.20703125 C-29.78833984 21.06169922 -29.79542969 19.91636719 -29.80273438 18.73632812 C-29.7559099 12.50867229 -29.46125298 7.71766747 -26.34375 2.26953125 C-19.38084009 -4.51484251 -8.29565957 -4.81080258 0 0 Z " fill="#1C1915" transform="translate(172.34375,30.73046875)"/>
... (truncated for brevity) ...
</svg>
